Coordinates
version=1
nRows=24
nColumns=24
inDegrees=yes

Units are S.I. units (second, meters, Newtons, ...)
Angles are in degrees.

endheader
time	pelvis_tilt	pelvis_list	pelvis_rotation	pelvis_tx	pelvis_ty	pelvis_tz	hip_flexion_r	hip_adduction_r	hip_rotation_r	knee_angle_r	ankle_angle_r	subtalar_angle_r	mtp_angle_r	hip_flexion_l	hip_adduction_l	hip_rotation_l	knee_angle_l	ankle_angle_l	subtalar_angle_l	mtp_angle_l	lumbar_extension	lumbar_bending	lumbar_rotation
      4.03500000	    -11.18846954	     -4.51810847	      4.16392046	     -1.87141361	     -0.05347953	     -0.33759360	     39.67036872	      1.91957863	     -7.32959543	    -12.16602145	     -2.90430244	      6.86092273	     14.72166682	     -2.85718760	     -1.21585743	      6.71191138	    -20.46555381	     26.58399964	     18.05307580	    -14.92791699	     10.15492736	      0.76738801	    -11.79286165
      4.04000000	    -11.27800520	     -4.85232385	      4.38518035	     -1.86443241	     -0.05454322	     -0.33758364	     39.88888335	      2.04314824	     -7.80752348	    -13.13216618	     -3.42599998	      6.65356950	     14.52453056	     -2.80190574	     -1.71644165	      6.45195236	    -21.26582811	     26.56760245	     18.92162386	    -14.65188544	     10.31415997	      1.18030352	    -11.96777982
      4.04500000	    -11.33437044	     -5.17339226	      4.49289229	     -1.85744413	     -0.05550017	     -0.33735149	     40.08024536	      2.24469738	     -8.15418868	    -14.08686227	     -4.19553021	      6.20161786	     14.43552738	     -2.75573377	     -2.26346560	      5.80956285	    -22.11292179	     26.50109915	     20.17114573	    -14.19668941	     10.42312012	      1.59768124	    -12.04044146
      4.05000000	    -11.45252573	     -5.58996460	      4.65791989	     -1.85036964	     -0.05638104	     -0.33726732	     40.31919783	      2.47325380	     -8.62168102	    -15.01192094	     -5.07015640	      5.67394407	     14.32798157	     -2.62365857	     -2.88455705	      5.42427565	    -22.97191319	     26.31047017	     21.12975577	    -13.75144153	     10.62581481	      2.11721411	    -12.17325130
      4.05500000	    -11.57426390	     -5.98056172	      4.76087550	     -1.84335234	     -0.05717057	     -0.33701594	     40.58560408	      2.72661027	     -9.01318467	    -15.95584555	     -6.05881981	      4.99181363	     14.19252102	     -2.44120397	     -3.53509865	      4.74260293	    -23.89209123	     26.03684807	     22.41714004	    -13.11306338	     10.81213094	      2.60754282	    -12.25365120
      4.06000000	    -11.71507991	     -6.39179567	      4.83638113	     -1.83631310	     -0.05785786	     -0.33673070	     40.87138508	      3.01768456	     -9.34471868	    -16.89358317	     -7.07299007	      4.21763137	     13.95027647	     -2.21425505	     -4.22098219	      4.03921516	    -24.83734542	     25.62075614	     23.69104146	    -12.34533547	     11.02012311	      3.12566697	    -12.31989054
      4.06500000	    -11.87043676	     -6.81292073	      4.89331577	     -1.82926382	     -0.05845413	     -0.33640071	     41.17805090	      3.33327588	     -9.63129147	    -17.84416999	     -8.04665896	      3.39438877	     13.57281951	     -1.93589670	     -4.94424083	      3.27177141	    -25.82406484	     25.06723943	     25.04145533	    -11.39979916	     11.24309323	      3.65487121	    -12.37918465
      4.07000000	    -11.90094487	     -7.13742854	      4.87241431	     -1.82216977	     -0.05868553	     -0.33589145	     41.33261607	      3.68552578	     -9.57126193	    -18.81734847	     -8.83001097	      2.41513554	     12.44240139	     -1.87894661	     -5.57894976	      2.53898751	    -26.50078159	     23.54805209	     26.14842404	     -7.98172823	     11.30720127	      4.09901972	    -12.34712718
      4.07500000	    -12.09997782	     -7.54023041	      4.79620212	     -1.81502339	     -0.05918006	     -0.33536899	     41.69605859	      4.08512891	     -9.66830080	    -19.81223765	     -9.57520042	      1.64780017	     11.87254865	     -1.52084558	     -6.32808653	      1.58547913	    -27.54404701	     22.67452043	     27.59064466	     -6.63356290	     11.57661945	      4.63138050	    -12.27409387
      4.08000000	    -12.19655382	     -7.92714788	      4.87297555	     -1.80787361	     -0.05934567	     -0.33499708	     41.91716339	      4.39782389	     -9.82030336	    -20.82189304	     -9.91996772	      1.06544900	     10.68143280	     -1.24219735	     -7.06718206	      0.90338829	    -28.44053119	     21.08008126	     28.84044368	     -3.56930892	     11.74037490	      5.10911934	    -12.40793424
      4.08500000	    -12.31587177	     -8.28444749	      4.81943053	     -1.80070536	     -0.05953448	     -0.33437232	     42.13689082	      4.81527400	     -9.67773123	    -21.75298141	    -10.37744143	      0.20936068	      9.88902757	     -0.91074958	     -7.81581438	      0.02645807	    -29.49082513	     19.69388318	     30.27889242	     -1.57875618	     11.91455056	      5.56647229	    -12.41998537
      4.09000000	    -12.41039679	     -8.63901098	      4.80059970	     -1.79348070	     -0.05963040	     -0.33379392	     42.31663076	      5.20394823	     -9.62674414	    -22.70453943	    -10.49250687	     -0.36612614	      8.98301361	     -0.57458791	     -8.57017355	     -0.75514771	    -30.50970394	     17.93426210	     31.64216331	      1.19536969	     12.07509592	      6.01254011	    -12.48129127
      4.09500000	    -12.48134116	     -8.97207575	      4.77355892	     -1.78623569	     -0.05966946	     -0.33319798	     42.44722873	      5.58821758	     -9.56196768	    -23.63077031	    -10.42308039	     -0.82601174	      8.27365849	     -0.23190992	     -9.30522752	     -1.47082142	    -31.55854078	     15.99621880	     32.93056521	      4.01041738	     12.20729769	      6.43733480	    -12.52912103
      4.10000000	    -12.53043719	     -9.29724970	      4.73149429	     -1.77901288	     -0.05969009	     -0.33254541	     42.53158393	      5.99375130	     -9.46847600	    -24.52129773	    -10.22454295	     -1.26105577	      7.72501284	      0.12546236	    -10.03010309	     -2.09147804	    -32.65697062	     13.96503546	     34.13916121	      6.75263609	     12.31056031	      6.84686292	    -12.55463098
      4.10500000	    -12.55444960	     -9.56650829	      4.64587385	     -1.77170372	     -0.05957392	     -0.33189083	     42.54395829	      6.37260070	     -9.39127869	    -25.36773750	     -9.84223689	     -1.44832973	      7.32600337	      0.44281454	    -10.68328933	     -2.67405421	    -33.70099758	     11.63207821	     35.21511523	      9.60443540	     12.39446762	      7.21408525	    -12.55909584
      4.11000000	    -12.60368671	     -9.88788953	      4.60729313	     -1.76450954	     -0.05950211	     -0.33113414	     42.55049550	      6.80218351	     -9.31614047	    -26.11837975	     -9.53163258	     -1.90490463	      7.05384562	      0.89379338	    -11.39675144	     -3.09146680	    -34.89851300	      9.36665239	     36.25009514	     11.88362634	     12.50166170	      7.59111901	    -12.62837085
      4.11500000	    -12.61328809	    -10.15046878	      4.51975680	     -1.75732701	     -0.05936572	     -0.33043423	     42.48153823	      7.19688532	     -9.22108261	    -26.85049541	     -8.96782161	     -2.00010965	      6.94474196	      1.30031683	    -12.01337743	     -3.44692722	    -36.05728462	      6.86372118	     37.06126334	     14.36098158	     12.55335620	      7.93958302	    -12.64416388
      4.12000000	    -12.64057282	    -10.43981637	      4.41558430	     -1.75020536	     -0.05925367	     -0.32968785	     42.39782959	      7.63045543	     -9.15268154	    -27.50672857	     -8.40776419	     -2.12624130	      6.95847049	      1.78439588	    -12.63839755	     -3.70776846	    -37.31480201	      4.41476998	     37.68020215	     16.25633005	     12.62334274	      8.30903173	    -12.65462983
      4.12500000	    -12.66000965	    -10.68235872	      4.29942931	     -1.74311284	     -0.05906894	     -0.32890891	     42.26744720	      8.02948694	     -9.11010120	    -28.10963724	     -7.78309428	     -2.17405928	      7.06421869	      2.27606498	    -13.17983681	     -3.84521266	    -38.55646522	      1.87428800	     38.12866450	     17.92150699	     12.68235407	      8.62106616	    -12.64627404
      4.13000000	    -12.67966414	    -10.91234917	      4.16283130	     -1.73612731	     -0.05890026	     -0.32809847	     42.10808519	      8.43140623	     -9.04941651	    -28.65776277	     -7.11240702	     -2.15545218	      7.28289857	      2.81773217	    -13.68589924	     -3.91535807	    -39.87791379	     -0.54891919	     38.43680951	     19.04816841	     12.72833352	      8.91800636	    -12.61505841
      4.13500000	    -12.68197174	    -11.19537445	      3.96582606	     -1.72916636	     -0.05873395	     -0.32732507	     41.88252122	      8.91776586	     -8.97460214	    -29.10670750	     -6.45201204	     -2.09566898	      7.57959477	      3.37833921	    -14.21478548	     -3.97500768	    -41.33639227	     -2.61801925	     38.41638221	     19.03680577	     12.75570886	      9.30773880	    -12.50971217
      4.14000000	    -12.78663435	    -11.40719369	      3.86374082	     -1.72237861	     -0.05855725	     -0.32656462	     41.75396387	      9.24451010	     -9.05652725	    -29.53227914	     -5.79582215	     -1.97620607	      7.90631481	      4.12742603	    -14.63035150	     -3.82948722	    -42.69478843	     -5.05613412	     38.28754081	     20.05442625	     12.89340520	      9.55790848	    -12.52668112
      4.14500000	    -12.74709959	    -11.65498001	      3.64684916	     -1.71561805	     -0.05825617	     -0.32571901	     41.41290773	      9.73626549	     -8.92715530	    -29.84236649	     -5.18683333	     -1.95014995	      8.18410807	      4.71441505	    -15.08273712	     -3.82653962	    -44.17361922	     -6.98677398	     37.81075473	     19.79739578	     12.84776361	      9.89844129	    -12.37088281
      4.15000000	    -12.84106416	    -11.84066811	      3.50218425	     -1.70898747	     -0.05803553	     -0.32502343	     41.20909288	     10.04843332	     -9.01776479	    -30.14851590	     -4.52135744	     -1.69229431	      8.65135191	      5.52626742	    -15.41611699	     -3.67394571	    -45.63251997	     -8.98682250	     37.10929582	     19.97359960	     12.95800792	     10.14574490	    -12.30534275
